<svg id="Capa_1" data-name="Capa 1" xmlns="http://www.w3.org/2000/svg" xmlns:xlink="http://www.w3.org/1999/xlink" viewBox="0 0 257.56 257.56"><defs><style>.cls-1,.cls-3,.cls-4{fill:none;}.cls-1{clip-rule:evenodd;}.cls-2{clip-path:url(#clip-path);}.cls-3,.cls-4{stroke:#03447c;stroke-miterlimit:22.93;}.cls-3{stroke-width:23.74px;}.cls-4{stroke-width:23.74px;}</style><clipPath id="clip-path" transform="translate(0 -2)"><path class="cls-1" d="M128.78,13.87A116.91,116.91,0,1,1,11.87,130.78,116.91,116.91,0,0,1,128.78,13.87"/></clipPath></defs><title>iso3</title><g class="cls-2"><path class="cls-3" d="M14,103.27c11.63,0,23.28,1.58,28.54,18.06,3.21,10.06,8.6,31.83,13.65,40,9.32,15.09,29.31,13.08,35-6.55L106,103.26c8.33-28.94,37-28.56,44.63,0l13.8,51.53c5.23,19.52,25.1,21.61,34.79,6.54,5.31-8.26,11.17-29.84,14.67-40,5.25-15.21,15.61-18.06,29.73-18.06" transform="translate(0 -2)"/></g><circle class="cls-4" cx="128.78" cy="128.78" r="116.91"/></svg>