<svg id="Capa_1" data-name="Capa 1" xmlns="http://www.w3.org/2000/svg" xmlns:xlink="http://www.w3.org/1999/xlink" viewBox="0 0 1139.2 283.49"><defs><style>.cls-1,.cls-4,.cls-5{fill:none;}.cls-1{clip-rule:evenodd;}.cls-2{fill:#03447c;}.cls-3{clip-path:url(#clip-path);}.cls-4,.cls-5{stroke:#03447c;stroke-miterlimit:22.93;}.cls-4{stroke-width:24.87px;}.cls-5{stroke-width:24.87px;}</style><clipPath id="clip-path" transform="translate(0 -2)"><path class="cls-1" d="M141.74,14.43A129.31,129.31,0,1,1,12.43,143.74,129.31,129.31,0,0,1,141.74,14.43"/></clipPath></defs><title>waves5</title><polygon class="cls-2" points="340.13 54.31 405.83 174.19 434.73 125.99 466.66 125.98 495.58 174.19 561.15 54.31 601.42 54.31 512.24 220.65 479.78 220.65 450.47 171.55 421.06 220.65 388.73 220.65 299.53 54.31 340.13 54.31"/><path class="cls-2" d="M870.18,191.1h144.66l-17,31.55H853.19Zm35.42-66.26h143.79L1033.76,154H890.19Zm36.73-68.53h144.86l-16.63,31.55H925.39Zm-201.83,0,65,121,65-121h42.33l-89.3,166.34H786.14L696.94,56.31Zm-109.25,0h35.88l89.3,166.34H715.09L649,99.84l-40.36,75.45h61.26l-16.94,31.56h-61.2l-8.45,15.8H541.94Z" transform="translate(0 -2)"/><path class="cls-2" d="M1131.79,219.38a3.52,3.52,0,0,1,1.08-2.6,3.68,3.68,0,0,1,2.67-1.06,3.62,3.62,0,0,1,3.66,3.66,3.64,3.64,0,0,1-3.66,3.71,3.69,3.69,0,0,1-2.67-1.07,3.56,3.56,0,0,1-1.08-2.64m-18.55-2.83a10.42,10.42,0,0,0,4.91-1.14,6.68,6.68,0,0,0,3.11-3.08v-2.22h-9.32v-5.06h16.41v8.25a15.79,15.79,0,0,1-5.93,7.26,16.46,16.46,0,0,1-9.18,2.53,18.34,18.34,0,0,1-6.68-1.18,14.89,14.89,0,0,1-5.15-3.34,15.26,15.26,0,0,1-3.31-5.13,19,19,0,0,1,0-13.17,15.09,15.09,0,0,1,3.34-5.12,14.92,14.92,0,0,1,5.17-3.34,18,18,0,0,1,6.63-1.18,18.34,18.34,0,0,1,8.72,2,13.74,13.74,0,0,1,5.7,5.7l-5.94,3.76a9.37,9.37,0,0,0-8.48-4.87,9.94,9.94,0,0,0-3.78.69,8.34,8.34,0,0,0-2.88,1.95,9,9,0,0,0-1.83,3,12.69,12.69,0,0,0,0,8,8.76,8.76,0,0,0,1.86,3.06,8,8,0,0,0,2.87,1.95A10,10,0,0,0,1113.24,216.55Zm-32.78-10.06a6,6,0,0,0,4-1.23,4.83,4.83,0,0,0,0-6.84,6.08,6.08,0,0,0-4-1.21H1074v9.28Zm12.65-5a10.22,10.22,0,0,1-1.71,6.07,9,9,0,0,1-5,3.39l7.93,11.68h-8.44l-6.86-11h-5v10.94h-7.14V191.09h14.33q5.79,0,8.85,2.69C1092.09,195.58,1093.11,198.14,1093.11,201.48Zm-41.63,9.69-4.32-11.82-4.31,11.82Zm-8.26-20.08h7.88l12.29,31.53h-7.83l-2.23-6H1041l-2.23,6h-7.84Z" transform="translate(0 -2)"/><g class="cls-3"><path class="cls-4" d="M14.77,113.31c12.86,0,25.74,1.75,31.56,20,3.55,11.13,9.52,35.21,15.1,44.26,10.31,16.69,32.43,14.47,38.67-7.24l16.4-57c9.21-32,40.9-31.59,49.36,0l15.26,57c5.78,21.59,27.77,23.9,38.48,7.24,5.87-9.14,12.36-33,16.23-44.26,5.8-16.82,17.26-20,32.89-20" transform="translate(0 -2)"/></g><circle class="cls-5" cx="141.74" cy="141.74" r="129.31"/></svg>