<svg id="Capa_1" data-name="Capa 1" xmlns="http://www.w3.org/2000/svg" xmlns:xlink="http://www.w3.org/1999/xlink" viewBox="0 0 950.14 236.44"><defs><style>.cls-1,.cls-4,.cls-5{fill:none;}.cls-1{clip-rule:evenodd;}.cls-2{fill:#ccc;}.cls-3{clip-path:url(#clip-path);}.cls-4,.cls-5{stroke:#ccc;stroke-miterlimit:22.93;}.cls-4{stroke-width:20.74px;}.cls-5{stroke-width:20.74px;}</style><clipPath id="clip-path" transform="translate(0 -2)"><path class="cls-1" d="M118.22,12.37A107.85,107.85,0,1,1,10.37,120.22,107.85,107.85,0,0,1,118.22,12.37"/></clipPath></defs><title>waves6</title><polygon class="cls-2" points="283.68 45.3 338.48 145.29 362.59 105.08 389.21 105.08 413.33 145.29 468.02 45.3 501.61 45.3 427.23 184.03 400.16 184.03 375.71 143.08 351.18 184.03 324.22 184.03 249.82 45.3 283.68 45.3"/><path class="cls-2" d="M725.77,159.71H846.41L832.28,186H711.59Zm29.54-55.25H875.23l-13,24.28H742.46Zm30.63-57.17H906.76L892.89,73.61H771.81Zm-168.34,0,54.22,100.92L726,47.29H761.3L686.82,186H655.67L581.27,47.29Zm-91.12,0h29.94L630.9,186H596.42L541.28,83.6l-33.67,62.93h51.1l-14.13,26.32H493.53l-7,13.18H452Z" transform="translate(0 -2)"/><path class="cls-2" d="M944,183.3a2.92,2.92,0,0,1,.91-2.16,3,3,0,0,1,2.23-.89,2.91,2.91,0,0,1,2.16.89,2.94,2.94,0,0,1,.89,2.16,3,3,0,0,1-.89,2.21,2.94,2.94,0,0,1-2.16.89,3.09,3.09,0,0,1-2.23-.89,3,3,0,0,1-.91-2.21m-15.47-2.36a8.72,8.72,0,0,0,4.1-.94,5.58,5.58,0,0,0,2.59-2.58v-1.85H927.4v-4.22h13.69v6.89a13.2,13.2,0,0,1-5,6,13.79,13.79,0,0,1-7.66,2.11,15.12,15.12,0,0,1-5.57-1,12.35,12.35,0,0,1-4.29-2.79,12.68,12.68,0,0,1-2.76-4.27,15.72,15.72,0,0,1,0-11,12.29,12.29,0,0,1,7.09-7.06,15,15,0,0,1,5.53-1,15.3,15.3,0,0,1,7.27,1.63,11.38,11.38,0,0,1,4.76,4.76l-5,3.13a7.83,7.83,0,0,0-7.08-4.06,8.15,8.15,0,0,0-3.15.58,6.83,6.83,0,0,0-2.4,1.62,7.37,7.37,0,0,0-1.52,2.53,10.66,10.66,0,0,0,0,6.7,7.29,7.29,0,0,0,1.54,2.55,6.62,6.62,0,0,0,2.4,1.62A8.2,8.2,0,0,0,928.48,180.94Zm-27.34-8.39a5,5,0,0,0,3.39-1,4,4,0,0,0,0-5.71,5.1,5.1,0,0,0-3.39-1h-5.37v7.73Zm10.56-4.18a8.56,8.56,0,0,1-1.43,5.07,7.54,7.54,0,0,1-4.18,2.82l6.62,9.75h-7l-5.73-9.17h-4.17V186h-6V159.71h12c3.22,0,5.69.75,7.39,2.24A8.11,8.11,0,0,1,911.7,168.37ZM877,176.46l-3.59-9.86-3.6,9.86Zm-6.88-16.75h6.57L886.91,186h-6.54l-1.85-5H868.23l-1.85,5h-6.54Z" transform="translate(0 -2)"/><g class="cls-3"><path class="cls-4" d="M12.32,94.84c10.72,0,21.47,1.46,26.32,16.66,3,9.29,7.94,29.37,12.6,36.92,8.59,13.92,27,12.07,32.25-6L97.16,94.84c7.68-26.71,34.12-26.35,41.17,0l12.73,47.54c4.82,18,23.16,19.93,32.1,6,4.89-7.63,10.3-27.54,13.53-36.92,4.84-14,14.4-16.66,27.43-16.66" transform="translate(0 -2)"/></g><circle class="cls-5" cx="118.22" cy="120.22" r="107.85" transform="translate(-35.72 49.44) rotate(-21.41)"/></svg>